<?xml version="1.0" standalone="no"?>
<!DOCTYPE svg PUBLIC "-//W3C//DTD SVG 20010904//EN"
 "http://www.w3.org/TR/2001/REC-SVG-20010904/DTD/svg10.dtd">
<svg version="1.0" xmlns="http://www.w3.org/2000/svg"
 width="1196.000000pt" height="1196.000000pt" viewBox="0 0 1196.000000 1196.000000"
 preserveAspectRatio="xMidYMid meet">
<metadata>
Created by potrace 1.11, written by Peter Selinger 2001-2013
</metadata>
<g transform="translate(0.000000,1196.000000) scale(0.100000,-0.100000)"
fill="#000000" stroke="none">
<path d="M4996 11933 c-19 -54 -26 -82 -32 -123 -3 -25 -8 -48 -11 -52 -2 -5
0 -8 4 -8 5 0 8 -12 7 -27 -1 -31 21 -147 34 -178 44 -100 77 -165 84 -165 4
0 8 -6 8 -13 0 -7 9 -23 20 -35 11 -12 20 -25 20 -29 0 -5 25 -35 55 -68 30
-33 54 -64 55 -68 0 -4 -26 -35 -57 -68 -198 -206 -240 -249 -247 -249 -4 0
-20 9 -35 19 -35 25 -232 124 -301 151 -122 48 -316 104 -395 115 -16 2 -46 6
-65 9 -120 18 -294 22 -410 11 -135 -13 -191 -23 -260 -43 -30 -9 -59 -17 -65
-18 -28 -5 -107 -49 -142 -79 -115 -98 -115 -311 1 -460 35 -45 151 -165 160
-165 3 0 25 -15 48 -32 46 -35 188 -113 188 -103 0 3 17 -3 39 -14 21 -11 41
-17 45 -14 3 4 6 1 6 -6 0 -7 4 -10 9 -7 4 3 22 1 40 -4 125 -36 310 -27 456
22 185 61 353 173 595 396 l64 60 38 -32 c61 -50 414 -416 402 -416 -2 0 7
-10 19 -23 12 -12 56 -60 97 -106 41 -46 81 -90 88 -97 6 -7 12 -18 12 -25 0
-10 -288 -302 -357 -362 -21 -18 -23 -18 -105 21 -148 71 -359 149 -448 166
-14 3 -53 12 -88 21 -34 8 -95 20 -135 26 -40 6 -83 12 -97 15 -46 8 -204 17
-315 16 -126 0 -230 -9 -340 -28 -16 -3 -42 -7 -56 -8 -14 -2 -30 -5 -35 -8
-7 -4 -95 -28 -124 -33 -83 -16 -461 -169 -480 -194 -3 -4 -27 -20 -55 -35
-141 -81 -251 -203 -272 -303 -11 -56 -10 -83 11 -173 9 -37 98 -220 108 -220
4 0 8 -5 8 -11 0 -17 132 -188 197 -254 153 -156 274 -234 454 -294 79 -26 96
-29 179 -38 268 -26 537 37 771 182 68 42 151 98 170 115 9 8 30 25 46 37 118
89 336 336 517 586 48 66 82 104 89 100 24 -14 139 -110 225 -188 93 -85 352
-335 352 -340 0 -1 -44 -36 -97 -76 -54 -41 -99 -77 -101 -81 -2 -5 -8 -8 -14
-8 -6 0 -18 -8 -27 -18 -9 -10 -32 -29 -51 -42 -19 -14 -48 -36 -65 -51 -16
-15 -62 -53 -101 -85 -86 -72 -182 -155 -243 -211 -43 -40 -61 -49 -86 -43 -5
1 -30 4 -55 5 -25 2 -45 4 -45 5 0 4 -168 13 -262 14 -57 0 -103 5 -103 9 0 5
-4 6 -9 3 -4 -3 -73 -8 -152 -11 -79 -3 -157 -7 -174 -9 -16 -2 -61 -6 -100
-10 -63 -6 -142 -17 -230 -32 -16 -3 -45 -9 -62 -14 -18 -4 -33 -6 -33 -3 0 3
-6 0 -13 -6 -8 -6 -16 -8 -19 -6 -3 3 -16 1 -30 -4 -14 -5 -41 -12 -61 -15
-20 -3 -56 -10 -79 -15 -24 -6 -55 -12 -71 -15 -56 -12 -73 -16 -127 -31 -30
-8 -64 -17 -75 -19 -11 -1 -51 -13 -90 -25 -312 -101 -462 -160 -725 -284 -56
-27 -279 -157 -330 -193 -80 -57 -98 -72 -165 -140 -77 -77 -86 -89 -114 -148
-71 -152 -11 -300 153 -381 40 -20 79 -37 87 -38 8 -2 19 -5 24 -8 9 -6 35
-11 160 -34 11 -2 20 -4 20 -5 0 -14 635 -20 760 -8 66 7 89 10 175 23 78 12
247 58 340 93 8 3 17 6 20 6 16 3 188 81 205 92 11 8 27 14 36 14 10 0 19 4
21 9 2 5 10 11 18 13 8 2 17 5 20 8 3 3 39 25 80 49 79 46 182 111 190 121 3
3 19 14 35 24 36 23 207 149 251 185 17 15 40 33 50 41 80 64 181 146 189 156
6 6 30 26 55 45 24 19 52 41 60 49 9 8 38 33 65 55 26 22 75 63 109 91 l60 51
55 -14 c31 -8 63 -18 71 -21 8 -3 24 -7 35 -9 11 -2 27 -6 35 -10 8 -3 18 -7
23 -8 4 -2 8 -3 10 -5 1 -1 9 -3 17 -5 32 -7 200 -65 290 -100 242 -94 598
-261 763 -359 40 -23 79 -45 87 -49 8 -4 33 -18 55 -32 22 -13 53 -32 69 -41
16 -9 81 -50 145 -92 64 -42 126 -82 138 -88 12 -7 32 -22 44 -33 13 -12 35
-27 51 -33 15 -7 28 -16 28 -20 0 -4 13 -14 29 -23 16 -8 35 -20 43 -27 7 -7
58 -47 113 -88 55 -41 106 -81 113 -88 8 -7 30 -25 50 -40 21 -15 44 -35 53
-44 9 -10 19 -18 22 -18 3 0 19 -14 37 -30 18 -17 55 -49 82 -73 171 -145 503
-478 624 -627 16 -19 37 -42 46 -51 10 -9 18 -19 18 -23 0 -4 10 -17 23 -30
12 -13 58 -70 102 -127 44 -57 83 -105 87 -107 5 -2 8 -10 8 -17 0 -8 6 -20
13 -27 25 -27 67 -87 67 -96 0 -6 3 -12 8 -14 8 -3 87 -123 118 -178 10 -19
21 -37 24 -40 12 -11 95 -163 92 -168 -2 -2 1 -8 6 -11 9 -6 132 -255 132
-267 0 -3 7 -20 15 -37 38 -84 102 -270 93 -273 -2 0 2 -7 8 -15 11 -14 68
-221 79 -289 3 -19 10 -61 16 -93 6 -32 13 -84 16 -115 8 -70 8 -452 0 -507
-11 -87 -19 -133 -33 -202 -16 -77 -72 -281 -82 -298 -4 -5 -8 -17 -9 -26 -1
-9 -8 -29 -14 -45 -7 -16 -13 -34 -14 -40 -2 -5 -14 -35 -27 -65 -13 -30 -31
-70 -38 -89 -8 -19 -42 -91 -76 -160 -54 -109 -87 -170 -145 -269 -29 -51
-229 -347 -251 -373 -13 -15 -45 -55 -73 -90 -27 -35 -54 -68 -60 -74 -5 -6
-37 -41 -70 -79 -65 -73 -210 -217 -290 -287 -27 -23 -57 -50 -66 -59 -9 -9
-43 -36 -75 -60 -33 -24 -64 -49 -70 -54 -6 -6 -37 -28 -70 -50 -32 -22 -60
-43 -62 -47 -2 -5 -10 -8 -18 -8 -8 0 -14 -4 -14 -10 0 -5 -4 -10 -10 -10 -5
0 -33 -15 -62 -34 -62 -39 -231 -131 -238 -129 -3 0 -17 -8 -32 -18 -14 -10
-31 -19 -36 -19 -6 0 -40 -13 -76 -29 -167 -75 -456 -158 -621 -177 -22 -3
-46 -7 -54 -10 -50 -17 -470 -24 -626 -10 -153 13 -184 17 -241 30 -12 2 -37
7 -55 10 -41 7 -67 12 -139 28 -66 14 -69 15 -72 17 -2 2 -13 4 -26 7 -64 12
-365 114 -467 158 -16 8 -59 26 -95 42 -102 45 -295 146 -382 201 -21 12 -42
23 -47 23 -5 0 -11 3 -13 8 -1 4 -34 27 -73 52 -209 135 -486 370 -660 561
-31 34 -152 184 -213 264 -19 25 -97 141 -97 145 -1 3 -16 28 -34 55 -73 112
-201 410 -226 525 -21 97 -36 175 -42 220 -9 67 -8 275 1 350 48 406 279 863
593 1176 119 118 280 244 368 289 22 11 42 23 45 26 8 11 179 89 193 89 7 0
17 4 22 9 14 12 165 57 250 75 186 38 366 42 600 11 55 -7 180 -33 235 -49 30
-9 57 -16 60 -15 5 0 133 -46 165 -60 21 -10 57 -23 65 -26 3 0 45 -20 93 -43
135 -65 334 -189 414 -257 6 -5 26 -21 45 -35 37 -27 278 -264 278 -274 0 -5
23 -35 55 -70 41 -45 185 -306 185 -335 0 -6 4 -19 9 -29 26 -49 52 -193 53
-292 0 -135 -25 -239 -91 -370 -44 -86 -68 -118 -168 -217 -153 -150 -393
-273 -626 -319 -10 -2 -26 -5 -35 -8 -17 -5 -43 -9 -137 -22 -58 -8 -254 -8
-305 -1 -153 23 -273 82 -378 187 -43 42 -83 83 -89 92 -32 42 -99 184 -108
228 -41 187 -83 314 -157 465 -46 95 -51 100 -90 85 -18 -8 -41 -21 -50 -29
-9 -9 -35 -29 -56 -46 -91 -69 -156 -223 -155 -365 1 -280 172 -535 448 -665
33 -16 65 -30 70 -31 6 -1 24 -8 40 -15 17 -6 39 -14 50 -16 11 -2 31 -8 45
-13 14 -5 36 -12 50 -14 14 -3 36 -7 50 -10 65 -14 77 -17 100 -21 14 -3 41
-8 60 -10 19 -2 45 -7 58 -9 123 -26 432 -26 569 0 15 3 37 7 48 9 107 15 310
82 438 144 369 180 607 469 672 816 16 89 26 241 16 259 -2 6 -6 33 -7 60 -2
28 -5 62 -8 76 -3 14 -9 41 -13 60 -8 41 -8 41 -15 60 -3 8 -16 47 -28 85 -27
82 -117 273 -154 328 -14 21 -26 42 -26 47 0 6 -4 10 -10 10 -5 0 -10 7 -10
15 0 8 -4 15 -9 15 -5 0 -14 13 -21 30 -7 16 -16 30 -20 30 -3 0 -22 21 -41
48 -48 66 -62 83 -174 202 -36 39 -113 109 -205 189 -90 78 -408 292 -440 296
-3 1 -25 12 -50 25 -94 51 -252 118 -355 151 -33 11 -67 23 -75 26 -8 3 -22 7
-31 9 -8 2 -42 11 -75 19 -70 19 -81 22 -125 29 -19 3 -56 9 -84 14 -27 5 -57
10 -65 11 -8 0 -33 3 -55 6 -71 10 -356 12 -418 3 -34 -5 -79 -10 -102 -13
-22 -2 -53 -7 -70 -10 -16 -3 -39 -7 -50 -9 -11 -2 -40 -9 -65 -16 -25 -7 -52
-14 -61 -15 -96 -19 -442 -166 -528 -224 -14 -10 -64 -43 -111 -74 -47 -31
-95 -64 -107 -74 -11 -10 -36 -30 -54 -45 -82 -65 -108 -88 -198 -179 -126
-126 -181 -190 -268 -313 -40 -55 -76 -106 -80 -112 -8 -10 -20 -30 -45 -76
-7 -13 -16 -25 -19 -28 -10 -9 -107 -199 -147 -290 -40 -90 -98 -250 -106
-293 -2 -7 -9 -32 -16 -57 -7 -25 -14 -52 -16 -60 -1 -8 -5 -26 -8 -40 -13
-55 -22 -111 -34 -190 -11 -83 -5 -493 9 -530 1 -3 1 -8 0 -13 -1 -4 4 -28 10
-55 6 -26 12 -56 14 -67 2 -11 6 -31 10 -45 4 -14 8 -34 10 -45 6 -39 78 -251
106 -313 15 -34 28 -65 28 -67 0 -19 147 -292 168 -313 7 -7 13 -17 13 -22 0
-10 135 -206 157 -228 7 -7 13 -16 13 -20 0 -4 15 -24 33 -44 17 -20 40 -47
50 -60 83 -108 290 -315 442 -442 38 -32 72 -62 73 -67 2 -5 8 -9 13 -9 6 0
20 -9 32 -21 12 -11 42 -35 67 -52 25 -17 47 -34 50 -37 3 -4 41 -31 85 -60
44 -29 82 -56 85 -59 3 -3 16 -13 30 -21 14 -8 86 -51 160 -95 123 -74 347
-190 475 -245 28 -12 64 -28 80 -36 65 -29 356 -134 373 -134 10 0 22 -4 27
-8 6 -5 30 -15 55 -22 25 -8 47 -14 50 -15 3 -1 24 -5 48 -10 23 -4 42 -12 42
-17 0 -5 4 -7 9 -4 4 3 23 1 42 -5 30 -9 69 -18 149 -35 14 -2 33 -7 42 -10
20 -6 34 -9 128 -24 41 -6 86 -14 100 -16 28 -5 71 -11 140 -18 25 -3 74 -8
110 -13 134 -15 674 -7 780 12 8 1 38 6 65 9 28 4 66 9 85 12 19 3 52 7 73 9
21 3 42 7 45 9 4 2 26 7 48 10 23 4 56 11 74 16 18 5 36 7 41 5 4 -3 10 -1 13
4 3 4 23 11 44 15 21 3 79 17 128 32 49 14 96 27 104 29 8 2 41 12 73 23 31
11 57 18 57 15 0 -3 7 1 16 8 9 7 23 14 31 15 31 5 265 100 301 122 12 8 22
12 22 8 0 -7 343 167 380 194 16 11 31 20 33 20 14 0 296 186 377 249 381 294
669 593 891 926 44 66 83 125 88 131 5 6 17 26 26 45 10 19 21 36 24 39 8 7
31 49 101 190 67 132 85 172 130 290 18 47 36 94 41 105 6 17 19 54 24 75 1 3
4 12 7 20 10 26 36 114 42 140 3 14 10 45 16 70 6 25 12 56 15 70 3 14 8 36
11 50 11 46 14 65 19 110 3 25 7 56 10 69 14 70 20 189 20 391 -1 228 -4 288
-31 470 -4 25 -7 52 -9 60 -1 8 -5 29 -8 45 -4 17 -9 45 -12 64 -3 19 -8 37
-10 41 -2 4 -7 20 -9 36 -3 16 -8 40 -11 54 -4 14 -7 30 -8 35 -2 6 -6 16 -10
23 -5 6 -6 12 -3 12 3 0 -1 19 -10 41 -8 23 -16 51 -18 63 -4 18 -65 195 -83
236 -3 8 -7 20 -8 25 -10 39 -156 346 -225 470 -18 33 -40 74 -49 90 -9 17
-19 32 -22 35 -3 3 -23 34 -44 70 -54 89 -249 367 -275 390 -3 3 -21 25 -40
50 -19 25 -37 47 -40 50 -3 3 -18 21 -34 40 -84 102 -158 182 -326 350 -206
205 -263 257 -450 408 -52 42 -106 87 -120 99 -14 13 -28 23 -32 23 -5 0 -16
8 -26 18 -11 9 -32 26 -47 37 -16 11 -41 30 -56 43 -15 12 -31 22 -37 22 -6 0
-12 4 -14 9 -3 9 -290 202 -349 235 -18 11 -36 22 -39 25 -6 7 0 4 -210 124
-194 111 -548 286 -745 367 -82 34 -159 66 -170 71 -42 17 -299 111 -314 114
-9 2 -43 13 -76 25 -33 11 -60 20 -60 20 0 -1 -28 7 -65 21 -14 5 -36 11 -50
13 -14 3 -72 19 -130 36 -58 17 -114 32 -125 34 -11 3 -22 5 -25 6 -3 1 -9 3
-15 4 -52 10 -95 19 -120 26 -29 9 -58 14 -137 27 -21 3 -38 9 -38 13 0 12
323 260 339 260 5 0 11 4 13 8 2 5 50 41 108 80 58 39 110 76 116 80 35 30 56
34 77 15 12 -10 24 -21 27 -24 12 -15 196 -171 248 -211 31 -23 59 -45 62 -48
3 -3 12 -9 21 -15 8 -5 60 -40 115 -76 171 -115 377 -215 564 -273 135 -42
143 -45 180 -51 19 -3 42 -8 50 -10 16 -5 73 -15 105 -19 11 -2 43 -6 70 -10
186 -25 381 -22 545 8 97 19 112 23 260 71 123 41 370 180 479 270 84 71 169
151 221 211 40 46 110 149 110 162 0 7 4 12 9 12 10 0 10 1 45 110 31 99 30
214 -4 315 -12 39 -26 72 -30 75 -4 3 -10 14 -14 25 -25 81 -215 302 -324 377
-26 18 -53 38 -61 46 -22 21 -210 108 -271 125 -147 41 -225 50 -420 51 -169
0 -250 -5 -355 -24 -33 -6 -73 -13 -90 -15 -69 -11 -256 -55 -277 -67 -33 -17
-18 0 40 43 93 71 169 142 227 214 38 47 90 135 80 135 -4 0 -2 7 5 15 21 26
16 160 -9 235 -58 171 -187 373 -311 488 -88 81 -226 159 -332 188 -75 21
-103 25 -188 28 -84 3 -134 -5 -232 -35 -37 -11 -71 -20 -74 -19 -4 1 -10 -2
-13 -7 -5 -7 -25 -19 -96 -57 -11 -6 -24 -16 -30 -22 -5 -5 -26 -22 -45 -36
-19 -14 -60 -50 -90 -80 -50 -49 -78 -80 -225 -248 -27 -30 -54 -60 -59 -66
-172 -180 -167 -176 -189 -161 -12 8 -38 30 -58 49 -20 18 -69 63 -109 98 -40
36 -78 70 -84 75 -21 20 -151 132 -174 151 -13 10 -36 29 -50 42 -50 43 -207
158 -224 165 -10 3 -18 12 -18 18 0 16 280 299 295 299 6 0 20 -8 31 -18 26
-24 111 -82 120 -82 4 0 15 -6 23 -13 16 -14 134 -66 161 -72 8 -2 35 -10 60
-18 25 -8 63 -18 85 -22 22 -4 49 -9 60 -11 138 -26 344 -18 447 16 128 43
191 108 197 201 7 120 -83 274 -224 385 -128 101 -298 144 -442 113 -32 -7
-61 -13 -65 -13 -3 -1 -10 -4 -14 -8 -4 -5 -16 -8 -26 -8 -10 0 -18 -4 -18
-10 0 -5 -6 -10 -13 -10 -18 0 -67 -24 -67 -32 0 -5 -5 -8 -11 -8 -21 0 -150
-94 -221 -162 -10 -10 -22 -18 -27 -18 -5 0 -11 -7 -15 -15 -3 -8 -12 -15 -21
-15 -16 0 -76 58 -118 113 -12 16 -27 34 -34 41 -44 48 -112 181 -138 268 -15
54 -26 178 -15 178 3 0 6 16 8 36 1 20 -2 33 -7 29 -5 -3 -12 -1 -16 5 -9 15
-22 12 -29 -7z m1053 -499 c59 -20 96 -41 155 -89 91 -73 176 -214 162 -268
-6 -25 -64 -62 -111 -72 -261 -51 -559 6 -769 148 l-58 39 26 25 c49 45 155
122 219 157 144 81 259 99 376 60z m-2049 -328 c136 -21 162 -27 275 -60 50
-15 209 -79 233 -94 12 -8 22 -11 22 -7 0 3 12 -2 28 -12 15 -10 41 -25 57
-33 17 -8 32 -17 35 -20 3 -3 44 -31 92 -63 49 -33 90 -62 93 -67 2 -4 -29
-40 -71 -79 -430 -407 -751 -483 -1088 -258 -110 74 -191 154 -286 281 -114
154 -130 199 -94 258 30 48 157 114 262 134 12 2 34 6 50 9 15 3 50 8 77 12
28 3 51 6 52 7 6 5 222 -2 263 -8z m2865 -601 c116 -10 231 -33 349 -71 84
-27 190 -77 213 -100 8 -8 17 -14 21 -14 12 0 102 -87 102 -99 0 -6 4 -11 8
-11 9 0 42 -62 51 -95 11 -41 4 -131 -13 -163 -18 -35 -102 -125 -126 -136 -8
-3 -31 -16 -50 -28 -176 -107 -636 -130 -930 -47 -25 7 -52 14 -62 15 -30 6
-202 84 -240 109 -21 14 -40 25 -43 25 -7 0 -82 48 -116 75 -15 11 -39 29 -55
40 -46 33 -139 108 -146 119 -7 10 146 166 162 166 5 0 15 6 22 13 12 11 84
56 135 84 37 21 143 62 143 56 0 -3 6 -1 13 4 25 20 170 48 302 59 44 4 81 7
82 8 3 3 108 -2 178 -9z m-1168 -631 c44 -43 165 -149 209 -184 25 -19 125
-85 179 -117 21 -12 106 -55 115 -58 3 -1 23 -9 45 -19 82 -37 238 -82 305
-89 20 -2 40 -6 45 -9 6 -3 56 -5 112 -4 57 1 103 0 103 -1 0 -1 -62 -33 -137
-71 -141 -70 -184 -93 -193 -102 -3 -3 -16 -11 -30 -18 -14 -6 -52 -27 -85
-47 -33 -19 -67 -38 -75 -42 -8 -3 -17 -9 -20 -13 -3 -3 -43 -29 -89 -57 l-85
-51 -125 96 c-69 53 -184 137 -256 189 -71 51 -134 96 -140 101 -22 17 -106
72 -111 72 -7 0 -114 72 -114 77 0 5 140 203 155 219 5 6 37 47 70 92 33 45
63 82 67 82 4 0 29 -21 55 -46z m-1602 -87 c11 -3 45 -8 75 -11 30 -4 76 -12
101 -17 26 -6 53 -12 60 -13 27 -5 75 -18 159 -43 76 -22 104 -33 175 -64 23
-10 78 -32 85 -34 9 -2 144 -75 185 -100 22 -13 51 -29 64 -35 23 -10 23 -11
5 -31 -11 -12 -48 -44 -84 -72 -36 -29 -69 -57 -75 -63 -42 -49 -378 -277
-491 -334 -38 -19 -72 -39 -76 -45 -4 -5 -8 -6 -8 -1 0 4 -10 2 -22 -6 -22
-14 -148 -66 -178 -74 -111 -28 -142 -35 -180 -40 -80 -10 -232 -6 -355 9 -16
2 -57 7 -90 11 -61 8 -81 11 -125 20 -13 3 -41 8 -62 11 -153 23 -346 113
-431 200 -64 66 -91 122 -93 196 -3 60 0 69 35 125 99 154 313 280 606 355
102 27 221 48 310 55 39 4 71 8 73 9 4 4 317 -4 337 -8z m4275 -253 c72 -9
120 -19 128 -24 1 -2 7 -4 12 -5 6 -1 11 -3 13 -5 1 -1 10 -3 20 -5 10 -2 26
-7 35 -11 9 -4 19 -8 22 -9 6 -1 71 -34 114 -58 89 -48 234 -191 282 -277 10
-19 22 -36 27 -38 4 -2 7 -11 7 -21 0 -9 7 -27 16 -39 8 -12 13 -22 10 -22 -2
0 1 -21 8 -47 41 -157 -17 -298 -172 -420 -22 -18 -46 -33 -51 -33 -6 0 -11
-5 -11 -12 0 -6 -3 -8 -6 -5 -4 3 -18 -3 -32 -13 -13 -11 -33 -20 -43 -20 -11
0 -19 -4 -19 -9 0 -4 -21 -14 -47 -21 -27 -7 -53 -17 -59 -21 -6 -5 -51 -18
-100 -30 -115 -27 -123 -29 -214 -43 -19 -3 -46 -8 -60 -10 -14 -3 -52 -8 -85
-11 -33 -4 -73 -9 -90 -10 -52 -6 -278 -18 -335 -18 -61 0 -247 11 -270 16 -8
2 -35 7 -60 11 -75 12 -91 16 -195 43 -185 48 -403 141 -560 238 -22 14 -51
31 -65 38 -14 6 -71 43 -127 82 -68 47 -98 74 -92 81 5 6 28 19 51 30 24 10
45 21 48 25 5 6 339 172 370 183 8 3 22 10 30 15 14 8 89 43 100 46 3 1 16 6
30 12 59 25 182 75 190 78 22 8 63 26 180 83 254 122 513 219 637 237 15 2 42
7 58 10 88 19 210 22 305 9z m-4025 -1539 c140 -9 174 -13 220 -21 22 -4 56
-8 75 -9 19 -2 35 -4 35 -5 0 -3 38 -9 68 -12 16 -1 30 -5 32 -9 5 -6 -174
-174 -289 -270 -15 -13 -44 -39 -63 -57 -19 -18 -51 -45 -71 -59 -21 -15 -46
-37 -57 -48 -11 -11 -54 -45 -96 -76 -41 -31 -83 -64 -92 -74 -9 -9 -17 -14
-17 -10 0 4 -7 0 -15 -8 -8 -8 -31 -25 -52 -38 -21 -13 -40 -26 -43 -29 -11
-15 -198 -122 -293 -169 -91 -44 -272 -113 -330 -126 -12 -2 -40 -9 -62 -14
-22 -6 -53 -12 -70 -15 -16 -3 -41 -8 -55 -11 -131 -27 -427 -26 -575 1 -166
30 -368 101 -434 153 -19 14 -22 24 -17 44 9 36 123 149 226 225 47 34 90 65
95 70 61 49 485 280 485 264 0 -4 4 -2 8 4 8 12 216 104 236 104 7 0 19 7 26
15 7 8 15 13 19 10 4 -2 20 2 34 10 15 8 31 15 35 16 14 3 38 11 67 22 17 7
32 12 35 12 3 1 34 10 70 22 89 29 171 53 195 58 11 2 20 4 20 5 0 1 11 3 25
5 87 12 126 16 215 21 55 3 101 7 102 8 5 4 207 -1 308 -9z"/>
</g>
</svg>
